<svg id="Calque_1" data-name="Calque 1" xmlns="http://www.w3.org/2000/svg" viewBox="0 0 238.59 485.95"><title>logo</title><path d="M249,253.81c0,30.79-.61,61.6.24,92.37.56,20.58-7.82,34.61-26,44.73-59.19,32.84-118,66.29-177.12,99.32-20.5,11.45-35,3.65-35.12-19.65-.41-63.15,0-126.3-.15-189.45,0-17.44,9.85-27.55,24.4-35.58,54.14-29.87,108.05-60.13,162.07-90.19,17.38-9.68,17.55-10.82.82-20.26Q128.46,95.82,58.71,56.75C43.61,48.27,43.06,48.5,43,65c-.1,43.84-.47,87.69.25,131.52.23,13.6-3.55,22.25-16.68,28.59-11.94,5.77-16.15,5.06-15.93-8.71.46-27.66.13-55.32.14-83,0-32.36-.24-64.72.12-97.08.3-26.07,14.23-33.73,37.72-20.59,58.61,32.78,117,66,175.55,98.82,16.92,9.48,25.35,22.71,25,42.13C248.49,189.08,249,221.45,249,253.81Z" transform="translate(-10.65 -9.49)"/><path d="M81.53,101.92c3.28,1.48,8.26,3.34,12.86,5.86,17.28,9.46,34.54,18.94,51.55,28.82,5.15,3,15.48,5.24,12.54,11.64-3.55,7.7-14.44,14-22.91,10.22a380.67,380.67,0,0,1-65.21-36.67c-4.21-3-4.75-8-2.31-12.81C70.41,104.36,74.33,102.05,81.53,101.92Z" transform="translate(-10.65 -9.49)"/><path d="M90.26,187.63c-8.62-2.87-17-6.24-22.14-14.2-2.51-3.89-1.78-8.12,1.17-11.67,3.31-4,8-5.93,12.91-4.36A72.79,72.79,0,0,1,98,164.86c4.6,2.86,14.1,3.67,11.9,10.29C107.43,182.58,98.21,185,90.26,187.63Z" transform="translate(-10.65 -9.49)"/></svg>